<svg xmlns="http://www.w3.org/2000/svg" viewBox="0 0 174.97 276.47"><defs><style>.cls-1{isolation:isolate;}.cls-2,.cls-3{fill:#fff;}.cls-3{opacity:0.19;}.cls-4{fill:#9f461e;}.cls-5{fill:#f3e7b3;}.cls-10,.cls-6{mix-blend-mode:multiply;}.cls-10,.cls-7{fill:#eaebea;}.cls-8{fill:#f9aab6;}.cls-9{fill:#ee8e99;}.cls-11{fill:#d93f35;}.cls-12{fill:#f25451;}</style></defs><title>Asset 1</title><g class="cls-1"><g id="Layer_2" data-name="Layer 2"><g id="OBJECTS"><rect class="cls-2" x="86.57" width="1.83" height="132.13"/><circle class="cls-3" cx="87.48" cy="188.99" r="87.48"/><circle class="cls-3" cx="87.48" cy="188.99" r="68.11"/><path class="cls-4" d="M121.12,153.82c4.44-33.84-34.85-47-34.85-47C94.43,117.46,74.41,125,74.41,125,40.31,133.62,50,152.81,50,152.81c-36.33,9.09-20.76,33.83-20.76,33.83H141.87C147.06,157.86,121.12,153.82,121.12,153.82Z"/><path class="cls-5" d="M61.31,184l-.18-.25-.08-.11a2.36,2.36,0,0,1-.2-.23,7.32,7.32,0,0,1-.6-.84,11.45,11.45,0,0,1-2-5.65,11,11,0,0,1,.75-4.28,15.13,15.13,0,0,1,3.07-4.83,14.15,14.15,0,0,1,1.11-1.08l2.31-1.87a34.85,34.85,0,0,0,10.23-15.37,4,4,0,0,0,.24-.9c0-.2.1-.39.17-.59a5.72,5.72,0,0,1,.59-1.19s-.21.2-.1.09l0,0,0-.06.1-.12.2-.24a1.06,1.06,0,0,0,.17-.24,3.57,3.57,0,0,1,.44-.51,8.21,8.21,0,0,1,1.26-1,38.93,38.93,0,0,1,4-2.14l1.3-.67,1-.61a23.19,23.19,0,0,0,2.47-1.67A18.36,18.36,0,0,0,94,130.71a20.35,20.35,0,0,0,.77-9.05c0-.35-.09-.7-.13-1s-.12-.6-.17-.9a16.93,16.93,0,0,0-.52-1.91,21.26,21.26,0,0,0-1.36-3.18c-.42-.79-.85-1.48-1.28-2.13-.27-.27-.54-.59-.8-.85-1-1-2-1.85-2.82-2.61.29.48.61,1,.94,1.68a23,23,0,0,1,1.83,4.75,18.15,18.15,0,0,1,.51,3,13.42,13.42,0,0,1,0,1.54c0,.29,0,.6,0,.9l-.09.81a15.81,15.81,0,0,1-2.19,6.64,11.56,11.56,0,0,1-5.33,4.45,15.72,15.72,0,0,1-1.65.61l-1.15.35-.07,0c.25-.11,0,0,.1-.05h0l-.13,0-.26.07-.53.12a47.44,47.44,0,0,0-5.1,1.36,19.43,19.43,0,0,0-3,1.36,14.48,14.48,0,0,0-1.54,1l-.77.57-.25.19-.12.09-.06.05,0,0-.16.15a17.38,17.38,0,0,0-2.53,2.67A16.66,16.66,0,0,0,65,143c-.36.59-.66,1.19-.79,1.37a20.94,20.94,0,0,1-5.12,5.53,18.91,18.91,0,0,1-3,1.83l-.68.29c-.32.15-.79.39-1,.47-1,.49-1.89,1-2.77,1.58a33.59,33.59,0,0,0-9,8.36A31.33,31.33,0,0,0,37.54,173a32.14,32.14,0,0,0-1,10.32c.09,1.19.24,2.29.41,3.34h21.9l3.13-1.7Z"/><path class="cls-5" d="M136.62,180.53a37.53,37.53,0,0,0-6.32-14.25,46.36,46.36,0,0,0-7.4-8c-.69-.6-1.4-1.17-2.12-1.73l-.27-.21-.13-.11-.07,0,0,0,.14.14-.46-.36-.45-.34-.19-.13a10.09,10.09,0,0,1-2-2,13,13,0,0,1-2.61-6,8.7,8.7,0,0,1-.13-.87l0-.22v-.11c0,.07,0-.76,0-.43v-.11l-.07-.61-.27-2.44a40.62,40.62,0,0,0-1-5.48,38.82,38.82,0,0,0-3.91-10c-.77-1.51-1.79-2.83-2.65-4.18s-2-2.47-2.91-3.63-2-2.13-3.06-3.09-2-1.82-3-2.6a60.08,60.08,0,0,0-5.66-4c-1.74-1.06-3.3-1.89-4.6-2.53l-.54-.26-.44-.16-.11,0a10.21,10.21,0,0,1,1.22,2l.24.21c.87.76,1.8,1.6,2.82,2.61.26.26.53.58.8.85,1.15,1.21,2.33,2.53,3.52,4,.74.92,1.41,2,2.15,3s1.32,2.19,2,3.32,1.18,2.38,1.71,3.64,1,2.54,1.31,3.89c.16.66.32,1.34.48,2l.24,1,.11,1a21.93,21.93,0,0,1,.27,4,26.18,26.18,0,0,1-.25,4.17l-.31,2.43-.08.61v.12c0,.36,0-.45,0-.35l0,.19,0,.39c-.08.52-.14,1-.18,1.57a27,27,0,0,0,2,12.74,26.12,26.12,0,0,0,3.39,5.85l1,1.23.36.46s.35.34.2.2l0,0,0,0,.08.1.15.19c.4.51.79,1,1.14,1.54a27.18,27.18,0,0,1,3.26,6,15.79,15.79,0,0,1,1.12,7.13,14.08,14.08,0,0,1-.31,1.75,9.14,9.14,0,0,1-.43,1.48l-.11.32h23.2c0-.51,0-1-.07-1.54A37.28,37.28,0,0,0,136.62,180.53Z"/><g class="cls-6"><path class="cls-7" d="M121.12,153.82c0-.37.06-.73.1-1.09h0c3.46-33-34.95-45.88-34.95-45.88s32.47,27.83,17.91,49.33a31.2,31.2,0,0,1-5.6,6.13,76.58,76.58,0,0,1-28.69.11s16.09,8.83,32.47,8.45c1.82,2.43,2.76,6-1.45,10-27.07,1.63-75,0-75-7.34h0a24.28,24.28,0,0,0,3.26,13.12H141.87C147.06,157.86,121.12,153.82,121.12,153.82Z"/></g><path class="cls-8" d="M142.11,185.43H26.33A3.47,3.47,0,0,0,23,190L39.22,241a5.14,5.14,0,0,0,4.11,3.56,283.09,283.09,0,0,0,40.89,2.84,282.78,282.78,0,0,0,40.88-2.84,5.14,5.14,0,0,0,4.11-3.56L145.41,190A3.47,3.47,0,0,0,142.11,185.43Z"/><polygon class="cls-9" points="64.13 238.85 42.67 197.31 54.88 197.31 64.13 238.85"/><polygon class="cls-9" points="104.18 238.85 125.64 197.31 113.43 197.31 104.18 238.85"/><polygon class="cls-9" points="83.96 238.85 93.02 197.31 78.44 197.31 83.96 238.85"/><path class="cls-10" d="M142.11,185.43h-4C133.32,200.5,111.58,251,38,237.12L39.22,241a5.14,5.14,0,0,0,4.11,3.56,283.09,283.09,0,0,0,40.89,2.84,282.78,282.78,0,0,0,40.88-2.84,5.14,5.14,0,0,0,4.11-3.56L145.41,190A3.47,3.47,0,0,0,142.11,185.43Z"/><path class="cls-11" d="M97,103.66c-7.58-1.08-16.57,2.3-17.46,10.91-.87,8.44,3.52,18.14,12.59,19.59,7.88,1.26,15.06-4.89,17.53-12C113,112.74,106.26,105,97,103.66Z"/><path class="cls-4" d="M107.64,87.92c-.65-1.52-1.77-3.26-3.85-1.15s-4.67,8.15-4.67,8.15a41.51,41.51,0,0,0-3,14c.72,1.87,1.47.87,1.47.87.21-13.2,6-18.57,6.72-20.08S108.3,89.44,107.64,87.92Z"/><path class="cls-12" d="M90.35,113.2c-1.74,2.36-4.44,3.32-6,2.15s-1.45-4,.29-6.38,4.43-3.32,6-2.16S92.09,110.84,90.35,113.2Z"/></g></g></g></svg>