<?xml version="1.0" encoding="utf-8"?>
<!-- Generator: Adobe Illustrator 22.0.0, SVG Export Plug-In . SVG Version: 6.00 Build 0)  -->
<svg version="1.1" id="Layer_1" xmlns="http://www.w3.org/2000/svg" xmlns:xlink="http://www.w3.org/1999/xlink" x="0px" y="0px"
	 viewBox="0 0 1042.1 888.1" style="enable-background:new 0 0 1042.1 888.1;" xml:space="preserve">
<style type="text/css">
	.st0{fill:#8B3E1E;}
	.st1{fill:#FBB615;}
	.st2{fill:#FFFFFF;stroke:#FFFFFF;stroke-width:3;stroke-miterlimit:10;}
	.st3{fill:#2D368E;}
	.st4{fill:#E80A89;}
</style>
<g>
	<g>
		<path class="st0" d="M804.8,365c-35.2,0-56.5-21.7-63.8-47.8c-2.1-6-3.4-12.3-3.3-18.2c0.4-14,3.7-28.3-15.1-17
			c-10.7,6.4-16.3,19-25.4,27.1c-18.1,16.7-36.7,32.9-54.5,50c-19,18.3-38,36.6-56.9,54.9L642,520.6c27-25,54-50.1,81.3-74.7
			c12.1-10.8,24.7-23,38.2-32.2c12.9-9.2,13.9-0.4,28-3.5c11.4-2.6,14-15.9,17.8-24.6c3.2-7.2,7.8-14.4,11.1-21.9
			C814.2,364.5,809.6,365,804.8,365z"/>
		<path class="st0" d="M382,707.1c26.3,15.2,48.8,9.4,70.9-10.9c17.8-16.5,35.6-32.8,53.5-49.2c13.1-12.1,26.2-24.2,39.3-36.3
			l-94.3-65.3c-17.2,16.6-34.4,33.2-51.5,49.8c-23.5,22.6-50.5,44.3-52.7,66.7C345.8,676.5,354.8,691.4,382,707.1z"/>
		<path class="st1" d="M784.1,315.5c-7.6-9.8-8.5-23-6.7-34.9c2-13.4,10.4-27,16.5-38.7c-0.8,7.8-0.2,19.8,2.7,27.1
			c3.3,8.3,12.6,14.8,14.7,22.9c2.9,11.6-8.1,20.8-7.8,32c0.1,8.7,31.1-15,32.9-17.5c8-11.2,10.3-24.8,9.3-38.2
			c-2.2-27.3-16-53-27.8-77.1c-10.1-20.8-12.1-44-22.3-64.4c-0.5,23.5-3.8,42.5-10.8,63C770.2,232,714.3,295.2,784.1,315.5z"/>
		<g>
			<path class="st2" d="M346.6,387.6c-8.5-7.2-15.7-15.5-21.8-24.5c-4,0.8-8.1,1.3-12.3,1.7c-2.8,0.2-5.5,0.4-8.3,0.4
				c-27.6,0.3-54.3-9.4-75.7-27.7c-2.5-2.1-4.8-4.4-7.1-6.7c-7.4,16.5-10.9,35-9.4,54.3c2.3,29.7,15.9,56.6,38.2,75.6
				c21.4,18.2,48.4,27,76.1,24.8c42.1-3.5,99.9-54,90.7-70.2C391.3,414.3,366.7,404.7,346.6,387.6z"/>
			<path class="st2" d="M307.7,262.2c0.5-1.9,1.1-3.7,1.7-5.6c11.7-37.2,40.3-67.1,77.3-79c-4.7-6.1-10-11.8-16-16.9
				c-19.5-16.6-43.6-25.4-68.7-25.1c-2.5,0-5,0.1-7.5,0.3c-58.4,4.8-102.1,57.6-97.4,117.8c1.7,21.6,9.4,41.6,22,58.3
				c1.2,1.5,2.4,3,3.6,4.5c1.2,1.4,2.4,2.9,3.7,4.3c2.8,3,5.7,5.9,8.9,8.6c21.4,18.2,48.5,27,76.1,24.8c2.4-0.2,4.8-0.6,7.1-1
				c-8.2-15.1-13.3-31.9-14.7-49.6c-1-12.3,0-24.2,2.4-35.7C306.9,266,307.2,264.1,307.7,262.2z"/>
			<path class="st2" d="M529.6,285c-2.4-30.2-16.1-57.4-38.8-76.7c-19.8-16.8-44.3-25.7-69.7-25.5c-2.5,0-5,0.1-7.6,0.4
				c-3.2,0.3-6.4,0.7-9.5,1.3c-1.8,0.3-3.6,0.8-5.5,1.2c-1.8,0.4-3.7,0.8-5.5,1.3c-34,9.8-60.7,36.1-72.3,69.4
				c-0.6,1.8-1.2,3.5-1.7,5.3c-0.5,1.8-1,3.6-1.4,5.4c-2.7,11.3-3.9,23.3-2.9,35.6c1.4,17.4,6.6,33.7,15,48.2
				c0.9,1.6,1.9,3.3,2.9,4.8c1,1.6,2.2,3.1,3.3,4.7c5.1,6.9,10.9,13.4,17.5,19c19,16.2,42.4,25.1,66.8,25.5c1.9,0,3.8-0.1,5.6-0.2
				c1.6-0.1,3.2,0,4.8-0.2c0.3,0,0.6-0.1,0.9-0.1C490.5,399.1,534.3,345.8,529.6,285z"/>
		</g>
		<g>
			<path class="st3" d="M452.2,180.8l2.3,0.7L522.4,58l140,253.7l17.4,2.2l25.6-23l-24.2-3.2L522.3,0l-97.4,177l4.8,0.2
				C437.7,177.6,445.3,178.8,452.2,180.8z"/>
			<path class="st3" d="M1040.8,334.5L844.9,309l-0.9,2.1c-1.5,3.8-3.3,7.1-5.5,10.1c-0.5,0.6-3.2,2.9-7.5,6.1l-1.3,1l0.2,1.7
				c0,0.2,0,0.4,0.1,0.6c0,0.1,0,0.2,0,0.4l0.2,2.4l144.3,18.7L748.6,549l53.3,278.7L522.3,696.1L242.7,827.7L296.1,549L70.3,352.2
				l137.9-17l0.7-1.6c0.9-2,1.9-4,2.9-5.8l0.8-1.5l-0.9-1.5c-3.6-5.8-6.3-11.9-7.8-18.3l-0.7-2.7L4,334.7l260.4,226.9l-61,318
				l319-150l319.1,150l-61.1-318L1040.8,334.5z"/>
		</g>
		<g>
			<path class="st1" d="M346.6,387.6c-8.5-7.2-15.7-15.5-21.8-24.5c-4,0.8-8.1,1.3-12.3,1.7c-2.8,0.2-5.5,0.4-8.3,0.4
				c-27.6,0.3-54.3-9.4-75.7-27.7c-2.5-2.1-4.8-4.4-7.1-6.7c-7.4,16.5-10.9,35-9.4,54.3c2.3,29.7,15.9,56.6,38.2,75.6
				c21.4,18.2,48.4,27,76.1,24.8c42.1-3.5,99.9-54,90.7-70.2C391.3,414.3,366.7,404.7,346.6,387.6z"/>
			<path class="st0" d="M307.7,262.2c0.5-1.9,1.1-3.7,1.7-5.6c11.7-37.2,40.3-67.1,77.3-79c-4.7-6.1-10-11.8-16-16.9
				c-19.5-16.6-43.6-25.4-68.7-25.1c-2.5,0-5,0.1-7.5,0.3c-58.4,4.8-102.1,57.6-97.4,117.8c1.7,21.6,9.4,41.6,22,58.3
				c1.2,1.5,2.4,3,3.6,4.5c1.2,1.4,2.4,2.9,3.7,4.3c2.8,3,5.7,5.9,8.9,8.6c21.4,18.2,48.5,27,76.1,24.8c2.4-0.2,4.8-0.6,7.1-1
				c-8.2-15.1-13.3-31.9-14.7-49.6c-1-12.3,0-24.2,2.4-35.7C306.9,266,307.2,264.1,307.7,262.2z"/>
			<path class="st4" d="M529.6,285c-2.4-30.2-16.1-57.4-38.8-76.7c-19.8-16.8-44.3-25.7-69.7-25.5c-2.5,0-5,0.1-7.6,0.4
				c-3.2,0.3-6.4,0.7-9.5,1.3c-1.8,0.3-3.6,0.8-5.5,1.2c-1.8,0.4-3.7,0.8-5.5,1.3c-34,9.8-60.7,36.1-72.3,69.4
				c-0.6,1.8-1.2,3.5-1.7,5.3c-0.5,1.8-1,3.6-1.4,5.4c-2.7,11.3-3.9,23.3-2.9,35.6c1.4,17.4,6.6,33.7,15,48.2
				c0.9,1.6,1.9,3.3,2.9,4.8c1,1.6,2.2,3.1,3.3,4.7c5.1,6.9,10.9,13.4,17.5,19c19,16.2,42.4,25.1,66.8,25.5c1.9,0,3.8-0.1,5.6-0.2
				c1.6-0.1,3.2,0,4.8-0.2c0.3,0,0.6-0.1,0.9-0.1C490.5,399.1,534.3,345.8,529.6,285z"/>
		</g>
	</g>
	<g>
		<polygon class="st0" points="572.9,423.6 570.8,443.2 583.5,443.3 		"/>
		<polygon class="st0" points="562.8,416 535.3,415.9 532.4,443 559.8,443.1 		"/>
		<polygon class="st0" points="524.3,415.8 510.4,415.8 495.5,429.1 494.1,443 521.5,443 		"/>
		<polygon class="st0" points="512,530.3 484.6,530.2 482.6,548.4 495.7,557.5 509.1,557.5 		"/>
		<polygon class="st0" points="558.6,454.1 531.2,454 528.3,481.2 555.7,481.3 		"/>
		<polygon class="st0" points="595.7,466 589.3,454.2 569.6,454.1 566.7,481.4 594.1,481.4 		"/>
		<polygon class="st0" points="483.4,439.9 480,443 483.1,443 		"/>
		<polygon class="st0" points="516.1,492.1 488.7,492 485.8,519.3 513.2,519.3 		"/>
		<polygon class="st0" points="520.2,454 492.9,453.9 489.9,481.1 517.3,481.2 		"/>
		<path class="st0" d="M713,683.4l-14.1,0l-1.5,13.5l14,9.6c3.3,2.6,6.1,3.9,8.3,4.2l2.2,0.1c0.6-0.2,1.1-0.5,1.5-1l0.5-4.6
			c-0.4-2-1.4-4.4-3-7.2L713,683.4z"/>
		<polygon class="st0" points="451.6,481.1 479,481.1 481.9,453.9 467.9,453.9 453.1,467.1 		"/>
		<polygon class="st0" points="441,478 437.5,481 440.6,481 		"/>
		<polygon class="st0" points="436.7,516.8 439.4,491.9 425.4,491.9 414.6,501.5 		"/>
		<polygon class="st0" points="518.9,568.5 518.4,573.2 543.9,590.9 546.3,568.5 		"/>
		<polygon class="st0" points="477.8,492 450.4,491.9 447.5,519.1 474.9,519.3 		"/>
		<polygon class="st0" points="456,530.1 472.5,541.4 473.7,530.2 		"/>
		<polygon class="st0" points="525.9,401.9 522.5,404.9 525.6,404.9 		"/>
		<polygon class="st0" points="549.7,380.5 538,391 536.4,404.9 562.9,405 		"/>
		<polygon class="st0" points="623.4,568.7 595.6,568.6 592.7,595.9 620.5,596 		"/>
		<polygon class="st0" points="657.7,607 630.3,606.9 627.3,634.1 654.8,634.2 		"/>
		<polygon class="st0" points="671.7,607 668.6,607 665.7,634.2 686.4,634.2 		"/>
		<polygon class="st0" points="626.2,645.1 625.9,647.4 651.3,665 653.6,645.1 		"/>
		<polygon class="st0" points="550.4,530.4 523,530.4 520.1,557.5 547.4,557.6 		"/>
		<polygon class="st0" points="691.9,645.2 664.5,645.1 661.6,672.1 662,672.3 689,672.4 		"/>
		<polygon class="st0" points="700.2,655.1 698,675.8 711.5,675.8 		"/>
		<polygon class="st0" points="619.3,606.8 591.5,606.8 589.8,622.5 606.5,634.1 616.4,634.1 		"/>
		<polygon class="st0" points="674,682.3 688.8,692.7 689.9,682.4 		"/>
		<polygon class="st0" points="660,585.2 651.1,568.7 634.4,568.7 631.5,596 658.8,596.1 		"/>
		<polygon class="st0" points="592.9,492.3 565.4,492.3 562.5,519.5 589.9,519.5 		"/>
		<polygon class="st0" points="609.9,492.3 603.8,492.3 600.9,519.6 624.7,519.7 		"/>
		<polygon class="st0" points="554.5,492.3 527.1,492.1 524.2,519.3 551.5,519.4 		"/>
		<polygon class="st0" points="637.1,542.9 635.6,557.9 645.2,557.9 		"/>
		<polygon class="st0" points="566.9,606.7 579.6,615.5 580.5,606.7 		"/>
		<polygon class="st0" points="627.5,530.6 599.7,530.5 596.7,557.7 624.6,557.8 		"/>
		<polygon class="st0" points="584.7,568.6 557.3,568.6 554.4,595.8 581.8,595.9 		"/>
		<polygon class="st0" points="588.8,530.5 561.3,530.4 558.4,557.6 585.8,557.7 		"/>
		<path class="st0" d="M525.3,363.6L399.6,476.1c-5.2,4.7-6.4,12-2.5,16.2c3.8,4.3,11.1,3.9,16.3-0.7L539.1,379
			c5.2-4.6,6.4-11.9,2.6-16.1C537.8,358.7,530.4,359,525.3,363.6"/>
	</g>
</g>
</svg>
