<?xml version="1.0" encoding="utf-8"?>
<!-- Generator: Adobe Illustrator 22.0.0, SVG Export Plug-In . SVG Version: 6.00 Build 0)  -->
<svg version="1.1" id="Layer_1" xmlns="http://www.w3.org/2000/svg" xmlns:xlink="http://www.w3.org/1999/xlink" x="0px" y="0px"
	 viewBox="0 0 5669.3 1133.9" style="enable-background:new 0 0 5669.3 1133.9;" xml:space="preserve">
<style type="text/css">
	.st0{fill:none;}
	.st1{fill:#2D368E;}
	.st2{fill:#8B3E1E;}
	.st3{fill:#FBB615;}
	.st4{fill:#FFFFFF;stroke:#FFFFFF;stroke-width:3;stroke-miterlimit:10;}
	.st5{fill:#E80A89;}
</style>
<g>
	<g>
		<g>
			<path class="st0" d="M970.5,411.9c-41.2,0-74.6,33.5-74.6,74.6v180c0,41.1,33.3,74.6,74.6,74.6c41.1,0,74.4-33.4,74.4-74.6v-180
				C1044.8,445.4,1011.5,411.9,970.5,411.9z"/>
			<path class="st0" d="M2030.3,486.6c0-41.1-33.4-74.6-74.6-74.6c-41.1,0-74.6,33.5-74.6,74.6v80h149.1V486.6z"/>
			<path class="st1" d="M1147.1,666.6v-180c0-97.3-79.2-176.6-176.6-176.6c-97.4,0-176.7,79.2-176.7,176.6v180
				c0,97.5,79.4,176.7,176.7,176.7C1067.9,843.2,1147.1,764,1147.1,666.6z M1044.8,666.6c0,41.1-33.3,74.6-74.4,74.6
				c-41.2,0-74.6-33.4-74.6-74.6v-180c0-41.1,33.3-74.6,74.6-74.6c41.1,0,74.4,33.5,74.4,74.6V666.6z"/>
			<path class="st1" d="M494.6,310c-49.6,0-94.4,20.6-126.6,53.6c-32.1-32.9-76.9-53.6-126.5-53.6c-97.4,0-176.6,79.2-176.6,176.6
				v305.6c0,28.2,22.9,51,51,51c28.2,0,51.1-22.9,51.1-51V486.6c0-41.1,33.4-74.6,74.5-74.6c41.1,0,74.5,33.5,74.5,74.6v305.6
				c0,28.2,22.9,51,51,51c0.3,0,0.7-0.2,0.9-0.2c0.4,0,0.7,0.2,1,0.2c28.2,0,51-22.9,51-51V486.6c0-41.1,33.4-74.6,74.6-74.6
				c41,0,74.4,33.5,74.4,74.6v305.6c0,28.2,22.9,51,51,51c28.3,0,51-22.9,51-51V486.6C671.1,389.2,591.9,310,494.6,310z"/>
			<path class="st1" d="M2081.3,843.2c28.2,0,51.2-22.9,51.2-51V486.6c0-97.3-79.4-176.6-176.7-176.6
				c-97.4,0-176.6,79.2-176.6,176.6v305.6c0,28.2,22.9,51,51,51c28.2,0,51-22.9,51-51V668.8h149.1v123.4
				C2030.3,820.3,2053.2,843.2,2081.3,843.2z M1881.2,566.5v-80c0-41.1,33.4-74.6,74.6-74.6c41.1,0,74.6,33.5,74.6,74.6v80H1881.2z"
				/>
			<path class="st1" d="M1323.8,843.2c28.1,0,51-22.9,51-51V617.7c19.8,128.2,131.4,226.5,265.9,226.5c28.2,0,51-22.8,51-51.1
				c0-28.3-22.9-51.1-51-51.1c-92.2,0-167.3-74.1-167.3-164.9c0-91.1,75.1-165.3,167.3-165.3c28.2,0,51-22.7,51-50.9
				c0-28.1-22.9-51-51-51c-134.5,0-246,98.4-265.9,226.3V361c0-28.1-22.9-51-51-51c-28.2,0-51,22.9-51,51v431.2
				C1272.8,820.3,1295.6,843.2,1323.8,843.2z"/>
		</g>
		<g>
			<path class="st0" d="M5427.6,535.1c-41.1,0-74.6,33.3-74.6,74.4v215c0,41,33.6,74.3,74.6,74.3c40.9,0,74.4-33.3,74.4-74.3v-215
				C5502,568.4,5468.5,535.1,5427.6,535.1z"/>
			<path class="st0" d="M4895.1,533.2c-41.2,0-74.7,33.4-74.7,74.6v135.7h149.1V607.9C4969.5,566.6,4936.3,533.2,4895.1,533.2z"/>
			<path class="st1" d="M5427.6,432.9c-97.5,0-176.6,79.4-176.6,176.6v134.1h-179.4V607.9c0-97.4-79.2-176.7-176.6-176.7
				c-97.3,0-176.6,79.3-176.6,176.7V816c0,0-1.2,29.8,25.9,29.8h221.7c2.9,50.5-37.9,73-71,73c-18,0-35.3-6.4-48.7-18
				c-21.3-18.6-53.4-16.4-72.1,5.1c-18.3,21.3-16.1,53.4,5.3,71.9c31.9,27.7,73.1,43,115.5,43c89.5,0,166.2-49.3,175.2-175h182.5
				v1.8c11.4,86.5,85.2,153.3,174.9,153.3c97.3,0,176.5-79.1,176.5-176.3v-215C5604.1,512.3,5524.9,432.9,5427.6,432.9z
				 M4969.5,743.6h-149.1V607.9c0-41.2,33.6-74.6,74.7-74.6c41.2,0,74.4,33.4,74.4,74.6V743.6z M5502,824.5
				c0,41-33.5,74.3-74.4,74.3c-41.1,0-74.6-33.3-74.6-74.3v-215c0-41.1,33.6-74.4,74.6-74.4c40.9,0,74.4,33.3,74.4,74.4V824.5z"/>
			<path class="st1" d="M4454.2,585h-451.9v-20c0-17.7,9.3-45.3,36.1-70c29.7-27.4,88.5-58.3,199.6-50.6
				c28.8,2.6,52.5-19.1,54.7-47.1c1.9-28.2-19.2-52.5-47.2-54.6c-147.9-10.1-231.9,36.3-276.5,77.8c-43,39.9-68.8,94-68.8,144.6
				v103.8c0,0-1.6,18.4,18.3,18.4h535.9c19.5,0,37.1,7.7,51.4,20.6c3.3,2.9,10.8,12.8,13.8,21.4c2.6,7.7,1.5,14.4-9.2,14.4h-431.7
				h-208.2h-215.7c-7.2,0-12.9-5.7-12.9-12.8V353.8c0-28.2-22.8-51-51-51c-28.3,0-51.2,22.8-51.2,51v376.9
				c0,63.2,51.7,115,115.1,115h215.7h208.2h495.9h39c0,0,17.4,0.7,17.4-23v-61C4630.8,664.2,4551.5,585,4454.2,585z"/>
		</g>
	</g>
	<g>
		<g>
			<path class="st2" d="M3116.9,478.8c-35.2,0-56.5-21.7-63.8-47.8c-2.1-6-3.4-12.3-3.3-18.2c0.4-14,3.7-28.3-15.1-17
				c-10.7,6.4-16.3,19-25.4,27.1c-18.1,16.7-36.7,32.9-54.5,50c-19,18.3-38,36.6-56.9,54.9l56.2,106.6c27-25,54-50.1,81.3-74.7
				c12.1-10.8,24.7-23,38.2-32.2c12.9-9.2,13.9-0.4,28-3.5c11.4-2.6,14-15.9,17.8-24.6c3.2-7.2,7.8-14.4,11.1-21.9
				C3126.4,478.3,3121.8,478.8,3116.9,478.8z"/>
			<path class="st2" d="M2694.2,820.9c26.3,15.2,48.8,9.4,70.9-10.9c17.8-16.5,35.6-32.8,53.5-49.2c13.1-12.1,26.2-24.2,39.3-36.3
				l-94.3-65.3c-17.2,16.6-34.4,33.2-51.5,49.8c-23.5,22.6-50.5,44.3-52.7,66.7C2658,790.3,2667,805.2,2694.2,820.9z"/>
			<path class="st3" d="M3096.3,429.2c-7.6-9.8-8.5-23-6.7-34.9c2-13.4,10.4-27,16.5-38.7c-0.8,7.8-0.2,19.8,2.7,27.1
				c3.3,8.3,12.6,14.8,14.7,22.9c2.9,11.6-8.1,20.8-7.8,32c0.1,8.7,31.1-15,32.9-17.5c8-11.2,10.3-24.8,9.3-38.2
				c-2.2-27.3-16-53-27.8-77.1c-10.1-20.8-12.1-44-22.3-64.4c-0.5,23.5-3.8,42.5-10.8,63C3082.4,345.8,3026.5,408.9,3096.3,429.2z"
				/>
			<g>
				<path class="st4" d="M2658.7,501.4c-8.5-7.2-15.7-15.5-21.8-24.5c-4,0.8-8.1,1.3-12.3,1.7c-2.8,0.2-5.5,0.4-8.3,0.4
					c-27.6,0.3-54.3-9.4-75.7-27.7c-2.5-2.1-4.8-4.4-7.1-6.7c-7.4,16.5-10.9,35-9.4,54.3c2.3,29.7,15.9,56.6,38.2,75.6
					c21.4,18.2,48.4,27,76.1,24.8c42.1-3.5,99.9-54,90.7-70.2C2703.5,528.1,2678.9,518.5,2658.7,501.4z"/>
				<path class="st4" d="M2619.9,376c0.5-1.9,1.1-3.7,1.7-5.6c11.7-37.2,40.3-67.1,77.3-79c-4.7-6.1-10-11.8-16-16.9
					c-19.5-16.6-43.6-25.4-68.7-25.1c-2.5,0-5,0.1-7.5,0.3c-58.4,4.8-102.1,57.6-97.4,117.8c1.7,21.6,9.4,41.6,22,58.3
					c1.2,1.5,2.4,3,3.6,4.5c1.2,1.4,2.4,2.9,3.7,4.3c2.8,3,5.7,5.9,8.9,8.6c21.4,18.2,48.5,27,76.1,24.8c2.4-0.2,4.8-0.6,7.1-1
					c-8.2-15.1-13.3-31.9-14.7-49.6c-1-12.3,0-24.2,2.4-35.7C2619,379.7,2619.4,377.9,2619.9,376z"/>
				<path class="st4" d="M2841.8,398.8c-2.4-30.2-16.1-57.4-38.8-76.7c-19.8-16.8-44.3-25.7-69.7-25.5c-2.5,0-5,0.1-7.6,0.4
					c-3.2,0.3-6.4,0.7-9.5,1.3c-1.8,0.3-3.6,0.8-5.5,1.2c-1.8,0.4-3.7,0.8-5.5,1.3c-34,9.8-60.7,36.1-72.3,69.4
					c-0.6,1.8-1.2,3.5-1.7,5.3c-0.5,1.8-1,3.6-1.4,5.4c-2.7,11.3-3.9,23.3-2.9,35.6c1.4,17.4,6.6,33.7,15,48.2
					c0.9,1.6,1.9,3.3,2.9,4.8c1,1.6,2.2,3.1,3.3,4.7c5.1,6.9,10.9,13.4,17.5,19c19,16.2,42.4,25.1,66.8,25.5c1.9,0,3.8-0.1,5.6-0.2
					c1.6-0.1,3.2,0,4.8-0.2c0.3,0,0.6-0.1,0.9-0.1C2802.6,512.9,2846.5,459.5,2841.8,398.8z"/>
			</g>
			<g>
				<path class="st1" d="M2764.4,294.6l2.3,0.7l67.8-123.4l140,253.7l17.4,2.2l25.6-23l-24.2-3.2l-158.8-287.7l-97.4,177l4.8,0.2
					C2749.9,291.4,2757.5,292.6,2764.4,294.6z"/>
				<path class="st1" d="M3353,448.3l-195.9-25.5l-0.9,2.1c-1.5,3.8-3.3,7.1-5.5,10.1c-0.5,0.6-3.2,2.9-7.5,6.1l-1.3,1l0.2,1.7
					c0,0.2,0,0.4,0.1,0.6c0,0.1,0,0.2,0,0.4l0.2,2.4l144.3,18.7l-225.8,196.8l53.3,278.7l-279.6-131.6l-279.7,131.6l53.4-278.7
					L2382.4,466l137.9-17l0.7-1.6c0.9-2,1.9-4,2.9-5.8l0.8-1.5l-0.9-1.5c-3.6-5.8-6.3-11.9-7.8-18.3l-0.7-2.7l-199.1,30.8
					l260.4,226.9l-61,318l319-150l319.1,150l-61.1-318L3353,448.3z"/>
			</g>
			<g>
				<path class="st3" d="M2658.7,501.4c-8.5-7.2-15.7-15.5-21.8-24.5c-4,0.8-8.1,1.3-12.3,1.7c-2.8,0.2-5.5,0.4-8.3,0.4
					c-27.6,0.3-54.3-9.4-75.7-27.7c-2.5-2.1-4.8-4.4-7.1-6.7c-7.4,16.5-10.9,35-9.4,54.3c2.3,29.7,15.9,56.6,38.2,75.6
					c21.4,18.2,48.4,27,76.1,24.8c42.1-3.5,99.9-54,90.7-70.2C2703.5,528.1,2678.9,518.5,2658.7,501.4z"/>
				<path class="st2" d="M2619.9,376c0.5-1.9,1.1-3.7,1.7-5.6c11.7-37.2,40.3-67.1,77.3-79c-4.7-6.1-10-11.8-16-16.9
					c-19.5-16.6-43.6-25.4-68.7-25.1c-2.5,0-5,0.1-7.5,0.3c-58.4,4.8-102.1,57.6-97.4,117.8c1.7,21.6,9.4,41.6,22,58.3
					c1.2,1.5,2.4,3,3.6,4.5c1.2,1.4,2.4,2.9,3.7,4.3c2.8,3,5.7,5.9,8.9,8.6c21.4,18.2,48.5,27,76.1,24.8c2.4-0.2,4.8-0.6,7.1-1
					c-8.2-15.1-13.3-31.9-14.7-49.6c-1-12.3,0-24.2,2.4-35.7C2619,379.7,2619.4,377.9,2619.9,376z"/>
				<path class="st5" d="M2841.8,398.8c-2.4-30.2-16.1-57.4-38.8-76.7c-19.8-16.8-44.3-25.7-69.7-25.5c-2.5,0-5,0.1-7.6,0.4
					c-3.2,0.3-6.4,0.7-9.5,1.3c-1.8,0.3-3.6,0.8-5.5,1.2c-1.8,0.4-3.7,0.8-5.5,1.3c-34,9.8-60.7,36.1-72.3,69.4
					c-0.6,1.8-1.2,3.5-1.7,5.3c-0.5,1.8-1,3.6-1.4,5.4c-2.7,11.3-3.9,23.3-2.9,35.6c1.4,17.4,6.6,33.7,15,48.2
					c0.9,1.6,1.9,3.3,2.9,4.8c1,1.6,2.2,3.1,3.3,4.7c5.1,6.9,10.9,13.4,17.5,19c19,16.2,42.4,25.1,66.8,25.5c1.9,0,3.8-0.1,5.6-0.2
					c1.6-0.1,3.2,0,4.8-0.2c0.3,0,0.6-0.1,0.9-0.1C2802.6,512.9,2846.5,459.5,2841.8,398.8z"/>
			</g>
		</g>
		<g>
			<polygon class="st2" points="2885.1,537.3 2883,557 2895.6,557.1 			"/>
			<polygon class="st2" points="2875,529.8 2847.5,529.7 2844.6,556.8 2872,556.9 			"/>
			<polygon class="st2" points="2836.5,529.6 2822.5,529.6 2807.7,542.8 2806.2,556.8 2833.6,556.8 			"/>
			<polygon class="st2" points="2824.2,644.1 2796.8,644 2794.8,662.2 2807.8,671.3 2821.3,671.3 			"/>
			<polygon class="st2" points="2870.8,567.9 2843.4,567.8 2840.5,595 2867.8,595.1 			"/>
			<polygon class="st2" points="2907.9,579.8 2901.5,568 2881.8,567.9 2878.8,595.2 2906.2,595.2 			"/>
			<polygon class="st2" points="2795.6,553.7 2792.1,556.8 2795.3,556.8 			"/>
			<polygon class="st2" points="2828.3,605.9 2800.9,605.8 2798,633 2825.4,633.1 			"/>
			<polygon class="st2" points="2832.4,567.8 2805.1,567.7 2802.1,594.9 2829.5,595 			"/>
			<path class="st2" d="M3025.1,797.2l-14.1,0l-1.5,13.5l14,9.6c3.3,2.6,6.1,3.9,8.3,4.2l2.2,0.1c0.6-0.2,1.1-0.5,1.5-1l0.5-4.6
				c-0.4-2-1.4-4.4-3-7.2L3025.1,797.2z"/>
			<polygon class="st2" points="2763.7,594.9 2791.2,594.9 2794.1,567.7 2780,567.7 2765.2,580.9 			"/>
			<polygon class="st2" points="2753.1,591.8 2749.7,594.8 2752.8,594.8 			"/>
			<polygon class="st2" points="2748.9,630.6 2751.6,605.7 2737.6,605.7 2726.8,615.3 			"/>
			<polygon class="st2" points="2831.1,682.3 2830.5,687 2856.1,704.6 2858.5,682.3 			"/>
			<polygon class="st2" points="2789.9,605.8 2762.5,605.7 2759.6,632.9 2787,633 			"/>
			<polygon class="st2" points="2768.2,643.9 2784.7,655.2 2785.8,644 			"/>
			<polygon class="st2" points="2838.1,515.7 2834.7,518.7 2837.8,518.7 			"/>
			<polygon class="st2" points="2861.9,494.3 2850.2,504.8 2848.6,518.7 2875.1,518.8 			"/>
			<polygon class="st2" points="2935.6,682.5 2907.8,682.4 2904.9,709.7 2932.7,709.7 			"/>
			<polygon class="st2" points="2969.9,720.8 2942.5,720.7 2939.5,747.9 2967,748 			"/>
			<polygon class="st2" points="2983.9,720.8 2980.8,720.8 2977.9,748 2998.6,748 			"/>
			<polygon class="st2" points="2938.4,758.9 2938,761.2 2963.5,778.8 2965.7,758.9 			"/>
			<polygon class="st2" points="2862.6,644.2 2835.1,644.2 2832.2,671.3 2859.6,671.4 			"/>
			<polygon class="st2" points="3004.1,759 2976.7,758.9 2973.8,785.9 2974.2,786.1 3001.2,786.2 			"/>
			<polygon class="st2" points="3012.4,768.9 3010.2,789.6 3023.6,789.6 			"/>
			<polygon class="st2" points="2931.5,720.6 2903.7,720.6 2902,736.3 2918.7,747.9 2928.5,747.9 			"/>
			<polygon class="st2" points="2986.2,796.1 3001,806.5 3002.1,796.2 			"/>
			<polygon class="st2" points="2972.1,699 2963.3,682.5 2946.5,682.5 2943.7,709.7 2971,709.9 			"/>
			<polygon class="st2" points="2905.1,606 2877.6,606 2874.7,633.3 2902.1,633.3 			"/>
			<polygon class="st2" points="2922.1,606.1 2916,606.1 2913.1,633.4 2936.8,633.5 			"/>
			<polygon class="st2" points="2866.6,606 2839.2,605.9 2836.4,633.1 2863.7,633.2 			"/>
			<polygon class="st2" points="2949.3,656.7 2947.8,671.7 2957.4,671.7 			"/>
			<polygon class="st2" points="2879.1,720.5 2891.7,729.3 2892.7,720.5 			"/>
			<polygon class="st2" points="2939.7,644.4 2911.9,644.3 2908.9,671.5 2936.8,671.6 			"/>
			<polygon class="st2" points="2896.9,682.4 2869.4,682.3 2866.5,709.6 2893.9,709.7 			"/>
			<polygon class="st2" points="2901,644.3 2873.5,644.2 2870.6,671.4 2897.9,671.5 			"/>
			<path class="st2" d="M2837.5,477.4l-125.7,112.6c-5.2,4.7-6.4,12-2.5,16.2c3.8,4.3,11.1,3.9,16.3-0.7l125.7-112.6
				c5.2-4.6,6.4-11.9,2.6-16.1C2850,472.5,2842.6,472.7,2837.5,477.4"/>
		</g>
	</g>
</g>
</svg>
