<?xml version="1.0" encoding="utf-8"?>
<!-- Generator: Adobe Illustrator 16.0.0, SVG Export Plug-In . SVG Version: 6.00 Build 0)  -->
<!DOCTYPE svg PUBLIC "-//W3C//DTD SVG 1.1//EN" "http://www.w3.org/Graphics/SVG/1.1/DTD/svg11.dtd">
<svg version="1.1" id="Layer_1" xmlns="http://www.w3.org/2000/svg" xmlns:xlink="http://www.w3.org/1999/xlink" x="0px" y="0px"
	 width="153px" height="38px" viewBox="0 0 153 38" enable-background="new 0 0 153 38" xml:space="preserve">
<g>
	<g>
		<path fill="#2E3192" d="M24.587,13.804c-2.411,0-4.376,1.962-4.376,4.372v4.457c0,2.413,1.965,4.374,4.376,4.374
			c2.411,0,4.373-1.961,4.373-4.374v-4.457C28.959,15.766,26.998,13.804,24.587,13.804z M26.428,22.633
			c0,1.019-0.825,1.846-1.841,1.846c-1.021,0-1.846-0.827-1.846-1.846v-4.457c0-1.018,0.825-1.847,1.846-1.847
			c1.017,0,1.841,0.83,1.841,1.847V22.633z"/>
		<path fill="#2E3192" d="M12.803,13.804c-1.229,0-2.337,0.51-3.135,1.326c-0.795-0.816-1.903-1.326-3.131-1.326
			c-2.411,0-4.372,1.962-4.372,4.372v7.566c0,0.698,0.567,1.265,1.263,1.265c0.698,0,1.265-0.566,1.265-1.265v-7.566
			c0-1.018,0.826-1.847,1.844-1.847c1.019,0,1.846,0.83,1.846,1.847v7.566c0,0.698,0.567,1.265,1.263,1.265
			c0.009,0,0.016-0.004,0.021-0.004c0.011,0,0.017,0.004,0.025,0.004c0.697,0,1.262-0.566,1.262-1.265v-7.566
			c0-1.018,0.828-1.847,1.848-1.847c1.015,0,1.842,0.83,1.842,1.847v7.566c0,0.698,0.568,1.265,1.264,1.265
			c0.701,0,1.264-0.566,1.264-1.265v-7.566C17.173,15.766,15.213,13.804,12.803,13.804z"/>
		<path fill="#2E3192" d="M48.984,13.804c-2.411,0-4.373,1.962-4.373,4.372v7.566c0,0.698,0.567,1.265,1.264,1.265
			s1.262-0.566,1.262-1.265v-3.054h3.692v3.054c0,0.698,0.567,1.265,1.262,1.265c0.699,0,1.268-0.566,1.268-1.265v-7.566
			C53.36,15.766,51.395,13.804,48.984,13.804z M47.138,20.156v-1.98c0-1.018,0.827-1.847,1.846-1.847
			c1.019,0,1.846,0.83,1.846,1.847v1.98H47.138z"/>
		<path fill="#2E3192" d="M41.184,16.329c0.698,0,1.264-0.563,1.264-1.262c0-0.697-0.566-1.263-1.264-1.263
			c-3.331,0-6.092,2.437-6.583,5.604v-4.342c0-0.697-0.568-1.263-1.264-1.263c-0.7,0-1.264,0.565-1.264,1.263v10.676
			c0,0.698,0.564,1.265,1.264,1.265c0.696,0,1.264-0.566,1.264-1.265v-4.317c0.491,3.173,3.252,5.609,6.583,5.609
			c0.698,0,1.264-0.565,1.264-1.266c0-0.699-0.566-1.266-1.264-1.266c-2.284,0-4.143-1.834-4.143-4.083
			C37.041,18.165,38.899,16.329,41.184,16.329z"/>
	</g>
	<g>
		<path fill="#2E3192" d="M148.629,16.164c-2.414,0-4.371,1.965-4.371,4.373v3.32h-4.441v-3.36c0-2.414-1.961-4.376-4.373-4.376
			c-2.408,0-4.372,1.962-4.372,4.376v5.152c0,0-0.03,0.738,0.642,0.738h5.489c0.072,1.25-0.938,1.808-1.759,1.808
			c-0.446,0-0.873-0.159-1.205-0.446c-0.527-0.462-1.322-0.406-1.786,0.126c-0.453,0.527-0.399,1.322,0.131,1.781
			c0.79,0.686,1.81,1.064,2.86,1.064c2.217,0,4.115-1.222,4.338-4.333h4.519v0.044c0.281,2.141,2.11,3.796,4.329,3.796
			c2.409,0,4.371-1.959,4.371-4.366v-5.324C153,18.128,151.038,16.164,148.629,16.164z M137.286,23.856h-3.693v-3.36
			c0-1.021,0.832-1.849,1.851-1.849c1.021,0,1.843,0.827,1.843,1.849V23.856z M150.472,25.86c0,1.015-0.829,1.838-1.843,1.838
			c-1.016,0-1.847-0.823-1.847-1.838v-5.324c0-1.017,0.831-1.843,1.847-1.843c1.014,0,1.843,0.826,1.843,1.843V25.86z"/>
		<path fill="#2E3192" d="M111.259,22.46h13.269c0.483,0,0.918,0.189,1.273,0.511c0.083,0.072,0.267,0.315,0.342,0.529
			c0.064,0.189,0.036,0.356-0.229,0.356c-0.075,0-10.69,0-10.69,0h-5.155h-5.342c-0.178,0-0.319-0.141-0.319-0.318v-9.333
			c0-0.699-0.564-1.263-1.263-1.263c-0.7,0-1.268,0.563-1.268,1.263v9.333c0,1.564,1.281,2.849,2.85,2.849h5.342h5.155h12.28h0.964
			c0,0,0.432,0.017,0.432-0.568v-1.512c0-2.415-1.963-4.378-4.372-4.378h-11.189v-0.494c0-0.438,0.231-1.121,0.894-1.734
			c0.736-0.678,2.192-1.445,4.941-1.253c0.713,0.066,1.301-0.472,1.354-1.167c0.048-0.698-0.476-1.3-1.171-1.353
			c-3.661-0.25-5.743,0.898-6.846,1.926c-1.065,0.987-1.705,2.329-1.705,3.582v2.57C110.806,22.005,110.766,22.46,111.259,22.46z"/>
	</g>
	<g>
		<path fill="#2E3192" d="M85.049,12.827l-0.828-0.109L77.47,0.486l-4.156,7.529c0.322,0.1,0.598,0.256,0.83,0.454l3.327-6.021
			l6.104,11.063l0.627,0.079L85.049,12.827z"/>
		<path fill="#2E3192" d="M99.479,14.705l-8.862-1.153c0.118,0.288,0.194,0.59,0.22,0.902l6.39,0.827l-9.879,8.609l2.326,12.168
			L77.47,30.313l-12.209,5.746l2.332-12.168l-9.88-8.609l5.553-0.72c-0.187-0.244-0.331-0.52-0.427-0.816l-7.38,0.959l11.05,9.628
			l-2.593,13.508l13.554-6.373l13.554,6.373l-2.596-13.508L99.479,14.705z"/>
		<g>
			<polygon fill="#8D3D1C" points="78.536,16.141 78.427,17.175 79.091,17.177 			"/>
			<polygon fill="#8D3D1C" points="78.007,15.745 76.561,15.739 76.408,17.166 77.846,17.171 			"/>
			<polygon fill="#8D3D1C" points="75.984,15.735 75.25,15.735 74.47,16.43 74.391,17.163 75.833,17.166 			"/>
			<polygon fill="#8D3D1C" points="75.336,21.752 73.894,21.748 73.791,22.706 74.476,23.181 75.183,23.184 			"/>
			<polygon fill="#8D3D1C" points="77.787,17.748 76.347,17.742 76.193,19.172 77.629,19.176 			"/>
			<polygon fill="#8D3D1C" points="79.735,18.371 79.397,17.754 78.364,17.748 78.209,19.182 79.648,19.182 			"/>
			<polygon fill="#8D3D1C" points="73.83,17.003 73.651,17.163 73.814,17.163 			"/>
			<polygon fill="#8D3D1C" points="75.552,19.743 74.112,19.741 73.957,21.171 75.398,21.175 			"/>
			<polygon fill="#8D3D1C" points="75.769,17.742 74.331,17.735 74.175,19.167 75.613,19.172 			"/>
			<path fill="#8D3D1C" d="M85.897,29.8l-0.743-0.003l-0.079,0.709l0.736,0.506c0.173,0.134,0.322,0.203,0.437,0.222l0.115,0.004
				c0.032-0.011,0.057-0.026,0.078-0.051l0.028-0.24c-0.022-0.104-0.074-0.232-0.16-0.38L85.897,29.8z"/>
			<polygon fill="#8D3D1C" points="72.158,19.165 73.6,19.167 73.751,17.735 73.015,17.735 72.237,18.43 			"/>
			<polygon fill="#8D3D1C" points="71.602,19.002 71.419,19.16 71.583,19.16 			"/>
			<polygon fill="#8D3D1C" points="71.379,21.043 71.519,19.731 70.782,19.731 70.216,20.239 			"/>
			<polygon fill="#8D3D1C" points="75.698,23.759 75.67,24.006 77.012,24.935 77.138,23.761 			"/>
			<polygon fill="#8D3D1C" points="73.535,19.741 72.095,19.731 71.942,21.166 73.383,21.171 			"/>
			<polygon fill="#8D3D1C" points="72.392,21.741 73.257,22.338 73.319,21.748 			"/>
			<polygon fill="#8D3D1C" points="76.065,15.001 75.886,15.162 76.049,15.162 			"/>
			<polygon fill="#8D3D1C" points="77.318,13.879 76.703,14.431 76.619,15.162 78.01,15.166 			"/>
			<polygon fill="#8D3D1C" points="81.189,23.769 79.729,23.767 79.576,25.202 81.037,25.203 			"/>
			<polygon fill="#8D3D1C" points="82.994,25.785 81.553,25.779 81.397,27.208 82.841,27.214 			"/>
			<polygon fill="#8D3D1C" points="83.729,25.785 83.564,25.785 83.413,27.216 84.502,27.216 			"/>
			<polygon fill="#8D3D1C" points="81.338,27.784 81.32,27.909 82.659,28.832 82.775,27.784 			"/>
			<polygon fill="#8D3D1C" points="77.353,21.76 75.912,21.756 75.759,23.184 77.197,23.187 			"/>
			<polygon fill="#8D3D1C" points="84.79,27.792 83.353,27.789 83.196,29.208 83.219,29.215 84.64,29.221 			"/>
			<polygon fill="#8D3D1C" points="85.229,28.313 85.11,29.4 85.819,29.4 			"/>
			<polygon fill="#8D3D1C" points="80.977,25.773 79.513,25.773 79.426,26.597 80.302,27.205 80.82,27.205 			"/>
			<polygon fill="#8D3D1C" points="83.851,29.743 84.628,30.287 84.686,29.748 			"/>
			<polygon fill="#8D3D1C" points="83.111,24.64 82.646,23.772 81.767,23.769 81.618,25.203 83.053,25.208 			"/>
			<polygon fill="#8D3D1C" points="79.587,19.752 78.144,19.752 77.992,21.183 79.43,21.185 			"/>
			<polygon fill="#8D3D1C" points="80.481,19.756 80.162,19.756 80.007,21.188 81.258,21.194 			"/>
			<polygon fill="#8D3D1C" points="77.566,19.752 76.126,19.743 75.977,21.175 77.411,21.181 			"/>
			<polygon fill="#8D3D1C" points="81.912,22.416 81.832,23.202 82.337,23.202 			"/>
			<polygon fill="#8D3D1C" points="78.222,25.769 78.886,26.23 78.936,25.769 			"/>
			<polygon fill="#8D3D1C" points="81.406,21.767 79.946,21.762 79.789,23.191 81.254,23.196 			"/>
			<polygon fill="#8D3D1C" points="79.159,23.767 77.715,23.763 77.562,25.195 79.002,25.202 			"/>
			<polygon fill="#8D3D1C" points="79.373,21.762 77.926,21.76 77.775,23.187 79.212,23.191 			"/>
			<path fill="#8D3D1C" d="M76.033,12.988l-6.607,5.917c-0.273,0.247-0.333,0.63-0.133,0.852c0.198,0.225,0.584,0.206,0.856-0.036
				l6.609-5.919c0.275-0.243,0.335-0.626,0.136-0.849C76.694,12.73,76.305,12.746,76.033,12.988z"/>
		</g>
		<path fill="#FDB913" d="M69.527,13.658c-2.662,1.886-3.842,1.819-3.842,1.819c0.018,2.93,3.186,3.336,3.186,3.336l7.403-6.626
			C75.007,9.87,72.51,11.537,69.527,13.658z M68.698,18.365c0,0-2.426-0.181-2.329-2.41c0,0,1.115-0.044,3.03-1.54
			C75.657,9.534,68.698,18.365,68.698,18.365z"/>
		<path fill="#8D3D1C" d="M71.389,11.585c2.394-1.534,3.668-1.18,3.668-1.18c-1.158-3.782-6.108-1.664-8.107-0.509
			c-1.998,1.155-3.526,1.475-3.526,1.475c-1.226,1.518,0.178,3.976,2.604,3.36C67.465,14.36,69.531,12.776,71.389,11.585z
			 M63.751,11.7c0,0,1.181-0.245,2.713-1.134c1.534-0.891,5.246,0.119,3.412,1.3c-1.432,0.913-3.018,2.131-4.123,2.41
			C63.891,14.756,62.814,12.865,63.751,11.7z"/>
		<path fill="#EC008C" d="M66.163,9.545c1.182-0.614,2.118-1.127,2.906-1.436c1.244-0.495,2.104-0.488,2.104-0.488
			c-0.074-2.095-2.76-2.515-4.536-1.932c-3.812,1.254-4.22-1.869-4.22-1.869s-2.313,4.063-0.381,6.003
			C62.821,10.612,63.924,10.725,66.163,9.545z M62.249,9.417c-1.198-1.808,0.175-4.581,0.175-4.581s-0.189,1.418,4.329,3.104
			C68.26,8.499,63.033,10.604,62.249,9.417z"/>
		<g>
			<path fill="#8D3D1C" d="M69.39,28.753c0.095-0.964,1.255-1.896,2.267-2.87c1.84-1.781,3.688-3.562,5.537-5.347
				c1.818-1.753,3.635-3.504,5.456-5.264c0.764-0.734,1.566-1.433,2.344-2.151c0.39-0.349,0.632-0.889,1.092-1.166
				c0.81-0.487,0.667,0.127,0.651,0.731c-0.011,0.612,0.307,1.292,0.679,1.771c0.354,0.471,2.291,1.687,2.519,0.574
				c0.136-0.667-0.45-1.449-0.931-1.834c-0.332-0.267-0.677-0.511-1.052-0.714c-0.152-0.087-0.211-0.184-0.338-0.277
				c-0.13-0.089-0.3-0.076-0.444-0.099c0.276-0.285,0.844-0.036,1.134,0.099c0.406,0.189,0.774,0.449,1.102,0.757
				c0.529,0.498,1.14,1.291,0.965,2.063c-0.104,0.488-0.436,0.934-0.634,1.389c-0.162,0.376-0.277,0.946-0.766,1.06
				c-0.607,0.135-0.648-0.246-1.204,0.15c-0.583,0.395-1.125,0.92-1.646,1.387c-1.372,1.231-2.72,2.497-4.075,3.744
				c-1.932,1.786-3.869,3.573-5.805,5.354c-0.771,0.705-1.537,1.408-2.302,2.119c-0.95,0.872-1.919,1.12-3.051,0.466
				C69.717,30.018,69.328,29.38,69.39,28.753z"/>
			<path fill="#8D3D1C" d="M88.784,13.952c0,0-0.199,0.316-0.394,0.076c0,0-0.409-0.175-0.348-0.474c0,0-0.041,0.004,0.393-0.35
				l1.057-1.246c0,0,0.177-0.277,0.273,0.135C89.766,12.093,89.889,12.389,88.784,13.952z"/>
		</g>
		<path fill="#FDB913" d="M88.858,4.87c0.406-1.179,0.595-2.265,0.623-3.616c0.586,1.169,0.696,2.5,1.276,3.695
			c0.677,1.383,1.47,2.86,1.596,4.424c0.06,0.771-0.075,1.552-0.532,2.193c-0.105,0.142-1.881,1.501-1.888,1.003
			c-0.018-0.647,0.61-1.169,0.445-1.837c-0.118-0.466-0.655-0.84-0.843-1.314c-0.17-0.42-0.201-1.111-0.156-1.557
			c-0.354,0.67-0.834,1.451-0.948,2.219c-0.101,0.684-0.05,1.438,0.387,2.003C84.81,10.918,88.018,7.295,88.858,4.87z"/>
	</g>
</g>
</svg>
