<svg xmlns="http://www.w3.org/2000/svg" xmlns:xlink="http://www.w3.org/1999/xlink" width="262.922" height="43.052"><path d="M51.366 26.237v-8.544a8.39 8.39 0 0 0-8.386-8.386 8.39 8.39 0 0 0-8.386 8.386v8.544a8.39 8.39 0 0 0 8.386 8.386 8.39 8.39 0 0 0 8.386-8.386zm-4.853 0c0 1.952-1.582 3.535-3.534 3.535s-3.534-1.582-3.534-3.535v-8.544c0-1.952 1.582-3.535 3.535-3.535s3.534 1.582 3.534 3.535zM20.393 9.312a8.38 8.38 0 0 0-6.01 2.542c-1.574-1.624-3.74-2.54-6-2.542-4.626.006-8.375 3.755-8.38 8.38V32.2c.001 1.337 1.084 2.42 2.42 2.423s2.423-1.085 2.425-2.423V17.693c.001-1.953 1.582-3.538 3.535-3.542 1.954.003 3.537 1.588 3.538 3.542V32.2c.001 1.337 1.085 2.42 2.422 2.423.016 0 .03-.007.042-.007s.03.007.048.007c1.337-.001 2.42-1.086 2.42-2.423V17.693c.002-1.956 1.586-3.54 3.542-3.542a3.55 3.55 0 0 1 3.53 3.542V32.2a2.43 2.43 0 0 0 2.423 2.423 2.42 2.42 0 0 0 2.423-2.423V17.693a8.39 8.39 0 0 0-8.379-8.381zm75.315 25.3a2.43 2.43 0 0 0 2.43-2.423V17.693a8.39 8.39 0 0 0-8.385-8.385 8.39 8.39 0 0 0-8.385 8.385V32.2a2.42 2.42 0 1 0 4.843 0v-5.856h7.078V32.2c.001 1.337 1.083 2.42 2.42 2.423zm-9.5-13.132v-3.8a3.54 3.54 0 0 1 3.539-3.539 3.54 3.54 0 0 1 3.539 3.539v3.8zM59.755 34.622c1.337-.002 2.42-1.086 2.422-2.423v-8.28a12.76 12.76 0 0 0 12.62 10.753c1.34 0 2.425-1.086 2.425-2.425s-1.086-2.425-2.425-2.425a7.84 7.84 0 0 1-6.86-3.892c-1.42-2.437-1.42-5.45 0-7.888s4.04-3.924 6.86-3.892a2.42 2.42 0 1 0 0-4.839 12.76 12.76 0 0 0-12.62 10.743v-8.322a2.42 2.42 0 1 0-4.844 0V32.2a2.42 2.42 0 0 0 2.422 2.423zm194.792-19.475a8.39 8.39 0 0 0-8.381 8.381v6.366h-8.52V23.45a8.38 8.38 0 1 0-16.764 0v9.88s-.058 1.414 1.23 1.414h10.52a3.22 3.22 0 0 1-3.37 3.466 3.53 3.53 0 0 1-2.312-.856 2.42 2.42 0 1 0-3.172 3.656c1.523 1.317 3.47 2.042 5.484 2.042 4.248 0 7.9-2.342 8.314-8.308h8.67v.084c.577 4.374 4.45 7.55 8.85 7.26a8.38 8.38 0 0 0 7.827-8.355V23.528a8.4 8.4 0 0 0-8.378-8.381zm-21.744 14.746h-7.08V23.45a3.54 3.54 0 1 1 7.079 0zm25.275 3.84a3.54 3.54 0 0 1-3.537 3.478 3.54 3.54 0 0 1-3.537-3.478V23.528a3.54 3.54 0 0 1 3.537-3.478 3.54 3.54 0 0 1 3.537 3.478zM208.34 22.365H186.9v-.948a4.82 4.82 0 0 1 1.714-3.325c1.4-1.3 4.2-2.77 9.472-2.4a2.39 2.39 0 0 0 2.595-2.237c.093-1.334-.9-2.493-2.243-2.594-7.02-.48-11 1.722-13.125 3.7a9.72 9.72 0 0 0-3.267 6.866v4.927a.8.8 0 0 0 .869.874h25.435a3.62 3.62 0 0 1 2.441.976c.284.292.507.637.654 1.017.125.364.07.683-.438.683h-40.614c-.163.002-.32-.062-.434-.176s-.18-.27-.18-.434v-17.9c-.027-1.32-1.104-2.376-2.424-2.376s-2.398 1.056-2.425 2.376v17.888a5.48 5.48 0 0 0 5.462 5.459h45.512s.826.033.826-1.1v-2.9a8.4 8.4 0 0 0-8.381-8.386z" fill="#2d368e"/><path d="M144.866 17.324a3 3 0 0 1-3.027-2.27 2.53 2.53 0 0 1-.156-.864c.017-.666.174-1.344-.718-.806-.507.305-.775.9-1.2 1.285l-2.586 2.374q-1.353 1.307-2.7 2.606l2.668 5.062 3.86-3.544a18.23 18.23 0 0 1 1.815-1.529c.614-.436.66-.017 1.328-.166.54-.126.666-.754.845-1.17.15-.344.368-.685.53-1.04a3.64 3.64 0 0 1-.66.06zM124.8 33.563a2.6 2.6 0 0 0 3.365-.515l2.54-2.337q.933-.86 1.865-1.72l-4.476-3.1q-1.224 1.18-2.447 2.363c-1.116 1.073-2.4 2.1-2.5 3.167-.067.692.36 1.395 1.652 2.143z" fill="#8b3e1e"/><path d="M143.887 14.975a2.17 2.17 0 0 1-.321-1.657 6.25 6.25 0 0 1 .785-1.836c-.046.434-.002.872.13 1.288.156.393.6.7.7 1.088.136.553-.383.985-.37 1.52.006.412 1.475-.713 1.562-.83.357-.534.513-1.176.44-1.814-.21-1.29-.66-2.53-1.32-3.66-.48-.99-.572-2.1-1.057-3.057a9.3 9.3 0 0 1-.515 2.992c-.698 2.003-3.35 5-.035 5.966z" fill="#fbb615"/><g fill="#fff" stroke="#fff" stroke-miterlimit="10" stroke-width="3"><use xlink:href="#B"/><use xlink:href="#C"/><use xlink:href="#D"/></g><path d="M128.13 8.582l.1.032 3.22-5.86 6.645 12.04.828.1 1.213-1.092-1.15-.15L131.46-.004l-4.624 8.4.23.01a4.53 4.53 0 0 1 1.065.176zm27.942 7.298l-9.3-1.2-.04.1a2.32 2.32 0 0 1-.26.48l-.356.3-.064.048.008.08v.046l.01.115 6.848.887-10.72 9.343 2.53 13.227-13.27-6.247-13.275 6.247 2.536-13.227L110 16.74l6.546-.805.033-.074.136-.277.038-.073-.044-.07a2.92 2.92 0 0 1-.373-.87l-.03-.127-9.45 1.463 12.358 10.768-2.9 15.094 15.143-7.12 15.145 7.12-2.9-15.094z" fill="#2d368e"/><use xlink:href="#B" fill="#fbb615"/><use xlink:href="#C" fill="#8b3e1e"/><use xlink:href="#D" fill="#e80a89"/><g fill="#8b3e1e"><path d="M133.86 20.1l-.1.934h.6zm-.477-.354l-1.306-.005-.14 1.288h1.3zm-1.827-.008h-.663l-.7.628-.07.66h1.3zm-.586 5.432h-1.3l-.094.865.62.43h.638zm2.214-3.615l-1.3-.006-.14 1.292h1.3zm1.76.563l-.306-.558h-.934l-.14 1.295h1.3zm-5.335-1.234l-.162.145h.148zm1.557 2.473h-1.3l-.14 1.292h1.3zm.195-1.807l-1.3-.006-.14 1.292 1.3.005zm9.146 10.888h-.67l-.07.64.665.456a.94.94 0 0 0 .394.2h.1c.028-.01.052-.025.07-.047l.026-.216c-.03-.12-.08-.237-.145-.343zm-12.406-9.603h1.3l.138-1.292h-.666l-.7.628zm-.504-.147l-.165.143h.147zm-.2 1.846l.126-1.184h-.665l-.5.458zm3.898 2.45l-.026.223 1.212.84.114-1.06zm-1.95-3.63l-1.3-.01-.138 1.3h1.3zm-1.032 1.805l.78.54.056-.533zm3.317-6.085l-.162.145h.147zm1.13-1.015l-.555.5-.076.66h1.255zm3.498 8.932h-1.32l-.14 1.3h1.32zm1.63 1.82l-1.3-.005-.14 1.3 1.3.005zm.662 0h-.15l-.137 1.292h.983zm-2.16 1.805l-.017.112 1.2.834.105-.946zm-3.6-5.44h-1.3l-.137 1.3h1.3zm6.718 5.448h-1.3l-.14 1.282.02.007 1.283.006zm.397.47l-.107.982h.64zm-3.84-2.292h-1.32l-.078.744.8.55h.47zm2.596 3.585l.7.5.052-.488zm-.668-4.61l-.42-.784h-.794l-.135 1.3 1.3.005zm-3.182-4.412h-1.306l-.137 1.292h1.3zm.808.005h-.3l-.14 1.294 1.13.005zm-2.632-.005l-1.3-.01-.136 1.294 1.3.005zm3.927 2.405l-.072.7h.456z"/><path d="M133.578 28.8l.6.415.045-.415zm2.874-3.615h-1.32L135 26.477h1.323zM134.423 27h-1.3l-.14 1.294 1.3.005zm.193-1.8H133.3l-.136 1.3h1.3zm-3.016-7.923l-5.966 5.343a.5.5 0 1 0 .653.736l5.97-5.345c.242-.18.297-.52.123-.766a.56.56 0 0 0-.778.032"/></g><defs ><path id="B" d="M123.117 18.397a5.75 5.75 0 0 1-1.033-1.161 5.44 5.44 0 0 1-.583.08l-.392.018a5.43 5.43 0 0 1-3.594-1.313c-.118-.1-.228-.208-.336-.317a5.29 5.29 0 0 0-.446 2.579c.1 1.39.753 2.684 1.814 3.59 1 .86 2.3 1.283 3.614 1.175 2-.164 4.743-2.562 4.3-3.33-1.23-.053-2.408-.518-3.344-1.32z"/><path id="C" d="M121.273 12.448l.08-.264a5.72 5.72 0 0 1 3.671-3.752 5.2 5.2 0 0 0-.758-.8c-.906-.78-2.065-1.203-3.26-1.192q-.177 0-.354.016a5.15 5.15 0 0 0-4.622 5.59 5.24 5.24 0 0 0 1.043 2.767l.172.213.177.2a5.23 5.23 0 0 0 .422.406 4.92 4.92 0 0 0 3.614 1.175c.114-.01.225-.03.337-.046-.674-1.236-.88-2.674-.582-4.05l.06-.263z"/><path id="D" d="M131.805 13.528c-.1-1.412-.764-2.723-1.84-3.642a5 5 0 0 0-3.308-1.209q-.18 0-.36.017l-.453.06-.26.056-.26.063c-1.61.48-2.9 1.71-3.433 3.3l-.08.253-.067.255a5.36 5.36 0 0 0 .576 3.975l.138.23.158.223a5.26 5.26 0 0 0 .832.9 5 5 0 0 0 3.173 1.208l.267-.01.227-.007.04-.006a5.23 5.23 0 0 0 4.65-5.667z"/></defs></svg>